<svg xmlns="http://www.w3.org/2000/svg" xmlns:xlink="http://www.w3.org/1999/xlink" width="500" zoomAndPan="magnify" viewBox="0 0 375 374.999991" height="500" preserveAspectRatio="xMidYMid meet" version="1.0"><defs><clipPath id="d902eeb325"><path d="M 11.566406 0 L 152 0 L 152 67 L 11.566406 67 Z M 11.566406 0 " clip-rule="nonzero"/></clipPath><clipPath id="5b420a954e"><path d="M 252 78 L 374.433594 78 L 374.433594 97 L 252 97 Z M 252 78 " clip-rule="nonzero"/></clipPath><clipPath id="e6c0ecaf63"><path d="M 307 98 L 351 98 L 351 108.859375 L 307 108.859375 Z M 307 98 " clip-rule="nonzero"/></clipPath><clipPath id="3a8664572f"><path d="M 306 101 L 351 101 L 351 112.613281 L 306 112.613281 Z M 306 101 " clip-rule="nonzero"/></clipPath></defs><g clip-path="url(#d902eeb325)"><path fill="#f99417" d="M 144.050781 0.957031 C 146.667969 0.527344 149.292969 0.0390625 151.949219 0 C 144.285156 1.191406 136.707031 3.070312 129.46875 5.878906 C 122.792969 8.46875 116.488281 12.011719 110.792969 16.363281 C 105.492188 20.34375 100.746094 24.992188 95.707031 29.292969 C 90.039062 34.019531 83.84375 38.074219 77.4375 41.714844 C 63.703125 49.460938 49.019531 55.378906 34.078125 60.3125 C 27.636719 62.410156 21.136719 64.351562 14.570312 66.023438 C 13.601562 66.242188 12.652344 66.578125 11.65625 66.640625 C 15.398438 65.722656 19.078125 64.542969 22.777344 63.449219 C 38.433594 58.609375 53.839844 52.78125 68.386719 45.175781 C 78.652344 39.78125 88.5 33.453125 97.128906 25.65625 C 99.1875 23.867188 101.039062 21.859375 103.125 20.097656 C 114.65625 10.066406 129.089844 3.675781 144.050781 0.957031 Z M 144.050781 0.957031 " fill-opacity="1" fill-rule="nonzero"/></g><path fill="#f99417" d="M 180.371094 2.179688 C 196.976562 1.085938 213.648438 2.378906 230.101562 4.71875 C 234.398438 5.046875 238.417969 6.707031 242.464844 8.058594 C 255.15625 12.429688 267.707031 17.238281 279.878906 22.910156 C 269.484375 21.976562 259.042969 21.667969 248.609375 21.640625 C 236.140625 21.585938 223.675781 21.953125 211.222656 22.570312 C 208.257812 22.734375 205.261719 22.828125 202.328125 22.28125 C 200 21.847656 197.703125 20.957031 195.882812 19.410156 C 190.925781 14.945312 186.21875 10.179688 180.867188 6.1875 C 179.941406 5.453125 178.789062 4.953125 178.125 3.9375 C 177.871094 3.597656 177.824219 3.042969 178.214844 2.785156 C 178.832031 2.332031 179.632812 2.269531 180.371094 2.179688 Z M 180.371094 2.179688 " fill-opacity="1" fill-rule="nonzero"/><path fill="#f99417" d="M 153.785156 5.214844 C 158.023438 4.777344 162.367188 4.980469 166.472656 6.203125 C 171.929688 7.765625 176.855469 10.921875 180.859375 14.925781 C 184.226562 18.261719 186.964844 22.191406 189.25 26.335938 C 172.839844 27.003906 156.429688 27.613281 140.019531 28.292969 C 137.765625 23.363281 134.851562 18.671875 131.011719 14.832031 C 130.378906 14.160156 129.503906 13.628906 129.222656 12.703125 C 129.175781 11.972656 129.976562 11.660156 130.511719 11.390625 C 133.285156 10.21875 136.140625 9.253906 139.011719 8.359375 C 143.832031 6.886719 148.761719 5.707031 153.785156 5.214844 Z M 153.785156 5.214844 " fill-opacity="1" fill-rule="nonzero"/><path fill="#f99417" d="M 121.667969 15.507812 C 122.75 14.96875 123.804688 14.21875 125.050781 14.171875 C 126.003906 14.269531 126.738281 14.980469 127.457031 15.554688 C 129.566406 17.460938 131.203125 19.820312 132.757812 22.183594 C 133.625 23.53125 134.449219 24.902344 135.210938 26.3125 C 135.46875 26.824219 135.765625 27.453125 135.503906 28.023438 C 135.125 28.609375 134.339844 28.542969 133.730469 28.558594 C 129.230469 28.5 124.734375 28.578125 120.238281 28.714844 C 115.933594 28.90625 111.617188 29.140625 107.359375 29.832031 C 105.808594 30.105469 104.238281 30.398438 102.796875 31.054688 C 106.078125 25.433594 111.195312 21.109375 116.824219 17.976562 C 118.398438 17.074219 120.042969 16.3125 121.667969 15.507812 Z M 121.667969 15.507812 " fill-opacity="1" fill-rule="nonzero"/><path fill="#f99417" d="M 226.054688 25.367188 C 235.886719 25.125 245.71875 24.871094 255.542969 24.414062 C 266.144531 24.050781 276.773438 24.203125 287.339844 25.1875 C 296.476562 25.988281 305.601562 26.96875 314.699219 28.171875 C 319.496094 28.820312 324.285156 29.519531 329.035156 30.472656 C 336.066406 31.84375 343.179688 33.246094 349.773438 36.148438 C 351.757812 37.035156 353.695312 38.03125 355.535156 39.191406 C 351.792969 37.742188 347.953125 36.507812 344.007812 35.75 C 342.332031 35.40625 340.625 35.234375 338.949219 34.902344 C 337.042969 34.742188 335.132812 34.917969 333.226562 34.894531 C 327.296875 34.941406 321.351562 35.128906 315.472656 35.9375 C 314.707031 36.058594 313.816406 36.199219 313.335938 36.882812 C 312.914062 37.558594 313.234375 38.386719 313.539062 39.042969 C 315.578125 42.648438 317.402344 46.375 319.296875 50.0625 C 320.589844 52.660156 321.941406 55.234375 323.199219 57.851562 C 318.050781 49.613281 310.949219 42.632812 302.722656 37.511719 C 301.3125 36.644531 299.875 35.820312 298.382812 35.109375 C 296.351562 34.171875 294.152344 33.660156 291.953125 33.308594 C 287.71875 32.757812 283.542969 31.851562 279.332031 31.152344 C 259.257812 27.65625 238.902344 25.609375 218.523438 25.578125 C 221.03125 25.402344 223.542969 25.441406 226.054688 25.367188 Z M 226.054688 25.367188 " fill-opacity="1" fill-rule="nonzero"/><path fill="#f99417" d="M 276.167969 36.550781 C 279.347656 37.222656 282.550781 38.382812 284.996094 40.609375 C 286.410156 41.875 287.453125 43.558594 287.90625 45.410156 C 288.203125 46.625 288.046875 47.988281 287.296875 49.015625 C 286.390625 50.269531 284.945312 50.996094 283.511719 51.464844 C 284.824219 50.460938 286.179688 49.320312 286.730469 47.699219 C 287.261719 46.179688 286.765625 44.503906 285.839844 43.253906 C 284.394531 41.273438 282.34375 39.84375 280.265625 38.605469 C 278.945312 37.828125 277.574219 37.148438 276.167969 36.550781 Z M 276.167969 36.550781 " fill-opacity="1" fill-rule="nonzero"/><path fill="#f99417" d="M 337.304688 36.539062 C 338.1875 36.429688 339.082031 36.386719 339.972656 36.484375 C 344.167969 37.332031 348.410156 38.0625 352.488281 39.410156 C 353.679688 39.804688 354.875 40.289062 355.847656 41.105469 C 357.148438 42.132812 357.980469 43.628906 358.511719 45.179688 C 359.457031 47.957031 360.441406 50.726562 361.121094 53.582031 C 361.398438 54.804688 361.710938 56.164062 361.082031 57.328125 C 360.714844 58.078125 359.851562 58.449219 359.054688 58.394531 C 351.035156 57.785156 343 57.464844 334.960938 57.335938 C 332.902344 57.25 330.777344 57.535156 328.792969 56.847656 C 326.566406 56.078125 324.941406 54.226562 323.628906 52.34375 C 321.480469 49.203125 319.5625 45.910156 317.777344 42.554688 C 317.222656 41.417969 316.707031 40.117188 317.03125 38.84375 C 317.28125 37.90625 318.28125 37.492188 319.164062 37.429688 C 325.191406 36.835938 331.257812 36.839844 337.304688 36.539062 Z M 337.304688 36.539062 " fill-opacity="1" fill-rule="nonzero"/><path fill="#f99417" d="M 271.195312 36.75 C 274.332031 36.5 277.300781 37.925781 279.929688 39.496094 C 281.605469 40.523438 283.234375 41.730469 284.367188 43.367188 C 285.292969 44.695312 285.765625 46.382812 285.464844 47.992188 C 285.03125 49.441406 283.714844 50.445312 282.3125 50.863281 C 280.523438 51.394531 278.605469 51.320312 276.792969 50.972656 C 272.496094 50.136719 268.78125 47.003906 267.042969 43 C 266.5 41.800781 266.421875 40.289062 267.285156 39.214844 C 268.269531 38.015625 269.585938 36.894531 271.195312 36.75 Z M 271.195312 36.75 " fill-opacity="1" fill-rule="nonzero"/><path fill="#f99417" d="M 291.683594 36.832031 C 294.789062 36.300781 297.898438 37.527344 300.421875 39.277344 C 302.039062 40.386719 303.46875 41.742188 304.789062 43.183594 C 306 44.433594 306.773438 46.0625 307.199219 47.738281 C 307.496094 49.089844 307.515625 50.65625 306.632812 51.800781 C 305.59375 53.121094 303.792969 53.546875 302.191406 53.511719 C 297.894531 53.101562 293.8125 50.761719 291.277344 47.253906 C 290.355469 45.992188 289.609375 44.601562 289.050781 43.144531 C 288.597656 41.804688 288.476562 40.285156 289.039062 38.957031 C 289.5 37.867188 290.523438 37.046875 291.683594 36.832031 Z M 291.683594 36.832031 " fill-opacity="1" fill-rule="nonzero"/><path fill="#f99417" d="M 298.890625 37.304688 C 301.628906 38.796875 304.363281 40.363281 306.714844 42.4375 C 307.898438 43.515625 309.035156 44.722656 309.660156 46.226562 C 310.144531 47.347656 310.199219 48.695312 309.640625 49.800781 C 309.21875 50.710938 308.464844 51.398438 307.691406 52.003906 C 308.496094 50.535156 308.695312 48.746094 308.160156 47.148438 C 307.339844 44.59375 305.46875 42.558594 303.527344 40.792969 C 302.09375 39.484375 300.476562 38.410156 298.890625 37.304688 Z M 298.890625 37.304688 " fill-opacity="1" fill-rule="nonzero"/><path fill="#f99417" d="M 359.316406 43.148438 C 359.390625 43.105469 359.546875 43.019531 359.628906 42.980469 C 360.386719 43.140625 360.972656 43.71875 361.523438 44.242188 C 363.113281 45.933594 364.214844 48.015625 365.152344 50.128906 C 365.769531 51.601562 366.457031 53.078125 366.675781 54.675781 C 366.746094 55.363281 366.808594 56.175781 366.304688 56.71875 C 365.984375 56.925781 365.636719 56.667969 365.398438 56.464844 C 363.335938 54.421875 362.304688 51.617188 361.003906 49.074219 C 360.316406 47.597656 359.574219 46.125 359.191406 44.535156 C 359.121094 44.082031 358.988281 43.527344 359.316406 43.148438 Z M 359.316406 43.148438 " fill-opacity="1" fill-rule="nonzero"/><path fill="#f99417" d="M 220.773438 48.1875 C 224.25 47.5625 227.925781 47.589844 231.25 48.890625 C 234.167969 49.992188 236.691406 52 238.636719 54.429688 C 241.0625 57.457031 242.679688 61.066406 243.753906 64.777344 C 244.910156 68.855469 245.464844 73.101562 245.40625 77.339844 C 245.191406 81.113281 244.691406 84.886719 243.699219 88.539062 C 242.757812 91.964844 241.355469 95.308594 239.207031 98.15625 C 237.320312 100.671875 234.808594 102.738281 231.902344 103.953125 C 228.609375 105.351562 224.929688 105.6875 221.402344 105.222656 C 224.472656 104.925781 227.515625 103.929688 230 102.058594 C 232.816406 99.96875 234.84375 96.972656 236.230469 93.773438 C 238.03125 89.621094 238.929688 85.132812 239.453125 80.65625 C 240.015625 76.292969 239.9375 71.863281 239.390625 67.503906 C 238.917969 63.910156 238.046875 60.320312 236.378906 57.082031 C 234.949219 54.300781 232.847656 51.816406 230.136719 50.230469 C 227.335938 48.542969 224 47.976562 220.773438 48.1875 Z M 220.773438 48.1875 " fill-opacity="1" fill-rule="nonzero"/><path fill="#f99417" d="M 104.628906 57.890625 C 106.238281 60.667969 107.972656 63.417969 110.242188 65.710938 C 111.5625 67.023438 113.097656 68.152344 114.84375 68.824219 C 116.679688 69.554688 118.664062 69.738281 120.613281 69.878906 C 144.257812 71.320312 167.902344 72.667969 191.546875 74.054688 C 192.980469 74.1875 194.433594 74.117188 195.855469 74.371094 C 184.652344 74.121094 173.449219 74.015625 162.246094 73.808594 C 147.859375 73.605469 133.472656 73.359375 119.085938 73.152344 C 117.222656 73.070312 115.328125 73.246094 113.496094 72.851562 C 110.746094 72.230469 108.597656 69.9375 107.746094 67.296875 C 106.722656 64.15625 105.605469 61.042969 104.628906 57.890625 Z M 104.628906 57.890625 " fill-opacity="1" fill-rule="nonzero"/><path fill="#f99417" d="M 121.585938 77.550781 C 122.417969 77.453125 123.242188 77.253906 124.085938 77.261719 C 139.699219 77.878906 155.316406 78.441406 170.933594 78.90625 C 176.589844 79.050781 182.242188 79.242188 187.902344 79.257812 C 188.535156 79.273438 189.167969 79.332031 189.792969 79.414062 C 187.550781 79.355469 185.3125 79.605469 183.070312 79.632812 C 168.878906 80.210938 154.671875 80.25 140.472656 80.1875 C 129.28125 80.132812 118.089844 79.933594 106.90625 79.671875 C 111.792969 78.921875 116.695312 78.265625 121.585938 77.550781 Z M 121.585938 77.550781 " fill-opacity="1" fill-rule="nonzero"/><g clip-path="url(#5b420a954e)"><path fill="#f99417" d="M 252.808594 79.28125 C 252.9375 78.941406 253.3125 79 253.605469 79 C 261.980469 79.402344 270.367188 79.765625 278.75 79.566406 C 280.0625 82.164062 282.304688 84.296875 285.042969 85.304688 C 286.8125 85.984375 288.726562 86.253906 290.621094 86.171875 C 305.761719 87.132812 320.929688 87.921875 336.105469 87.707031 C 341.507812 87.503906 346.910156 87.179688 352.292969 86.679688 C 356.480469 86.265625 360.664062 85.769531 364.785156 84.894531 C 366.554688 84.5 368.332031 84.066406 370.015625 83.359375 C 370.882812 82.972656 371.800781 82.535156 372.332031 81.699219 C 373.199219 82.816406 373.585938 84.207031 373.980469 85.542969 C 374.347656 86.808594 374.105469 88.253906 373.238281 89.257812 C 371.984375 90.734375 370.132812 91.480469 368.347656 92.085938 C 364.628906 93.269531 360.738281 93.78125 356.875 94.238281 C 346.847656 95.300781 336.757812 95.601562 326.6875 95.941406 C 305.851562 96.625 284.980469 96.007812 264.214844 94.238281 C 260.867188 93.9375 257.519531 93.625 254.183594 93.230469 C 253.921875 93.15625 253.492188 93.195312 253.449219 92.84375 C 253.457031 88.320312 253.21875 83.789062 252.808594 79.28125 Z M 252.808594 79.28125 " fill-opacity="1" fill-rule="nonzero"/></g><path fill="#f99417" d="M 238.195312 101.921875 C 243.84375 97.03125 246.738281 89.519531 247.058594 82.152344 C 247.558594 84.1875 247.539062 86.300781 247.671875 88.382812 C 247.734375 91.152344 247.824219 93.925781 247.664062 96.691406 C 247.78125 97.261719 248.492188 97.417969 248.984375 97.527344 C 251.386719 97.894531 253.828125 97.859375 256.246094 98.050781 C 255.566406 99.195312 254.539062 100.070312 253.609375 101.003906 C 252.171875 102.390625 250.671875 103.710938 249.136719 104.980469 C 247.371094 106.425781 244.957031 106.324219 242.820312 106.597656 C 238.226562 106.925781 233.597656 107.269531 229 106.84375 C 232.359375 105.859375 235.546875 104.226562 238.199219 101.921875 Z M 238.195312 101.921875 " fill-opacity="1" fill-rule="nonzero"/><path fill="#f99417" d="M 70.675781 85.953125 C 74.933594 86.285156 79.167969 86.832031 83.421875 87.226562 C 103.070312 89.214844 122.730469 91.117188 142.402344 92.835938 C 155.5625 93.96875 168.730469 95.054688 181.917969 95.820312 C 185.152344 95.949219 188.382812 96.195312 191.621094 96.222656 C 186.398438 96.296875 181.167969 96.152344 175.945312 96.117188 C 162.707031 96.003906 149.472656 95.898438 136.234375 95.84375 C 135.285156 95.820312 134.335938 95.875 133.394531 95.804688 C 112.484375 92.535156 91.585938 89.203125 70.675781 85.953125 Z M 70.675781 85.953125 " fill-opacity="1" fill-rule="nonzero"/><g clip-path="url(#e6c0ecaf63)"><path fill="#f99417" d="M 338.035156 99.105469 C 342.132812 98.992188 346.222656 98.804688 350.304688 98.457031 C 349.605469 99.746094 348.410156 100.652344 347.316406 101.582031 C 342.234375 105.558594 336.027344 108.238281 329.558594 108.617188 C 325.433594 108.855469 321.257812 108.035156 317.523438 106.261719 C 313.917969 104.574219 310.722656 102.09375 307.972656 99.226562 C 317.992188 99.351562 328.019531 99.371094 338.035156 99.105469 Z M 338.035156 99.105469 " fill-opacity="1" fill-rule="nonzero"/></g><path fill="#363062" d="M 137.046875 0.988281 C 139.753906 0.546875 142.46875 0.0390625 145.21875 0.00390625 C 137.292969 1.230469 129.453125 3.175781 121.960938 6.082031 C 115.054688 8.761719 108.53125 12.425781 102.640625 16.925781 C 97.15625 21.042969 92.246094 25.851562 87.035156 30.300781 C 81.171875 35.191406 74.757812 39.386719 68.132812 43.15625 C 53.925781 51.167969 38.734375 57.289062 23.273438 62.390625 C 16.609375 64.558594 9.886719 66.570312 3.09375 68.296875 C 2.089844 68.523438 1.105469 68.875 0.0742188 68.9375 C 3.949219 67.988281 7.757812 66.769531 11.582031 65.636719 C 27.78125 60.632812 43.71875 54.601562 58.769531 46.734375 C 69.390625 41.15625 79.574219 34.605469 88.503906 26.542969 C 90.632812 24.691406 92.550781 22.613281 94.707031 20.792969 C 106.636719 10.414062 121.570312 3.804688 137.046875 0.988281 Z M 137.046875 0.988281 " fill-opacity="1" fill-rule="nonzero"/><path fill="#363062" d="M 174.625 2.257812 C 191.804688 1.125 209.050781 2.464844 226.070312 4.878906 C 230.519531 5.222656 234.675781 6.9375 238.863281 8.335938 C 251.992188 12.855469 264.980469 17.832031 277.570312 23.699219 C 266.816406 22.734375 256.015625 22.417969 245.21875 22.386719 C 232.320312 22.332031 219.421875 22.707031 206.542969 23.347656 C 203.476562 23.519531 200.371094 23.617188 197.339844 23.050781 C 194.929688 22.601562 192.554688 21.683594 190.667969 20.078125 C 185.542969 15.460938 180.671875 10.53125 175.136719 6.398438 C 174.179688 5.644531 172.988281 5.125 172.300781 4.074219 C 172.035156 3.722656 171.988281 3.148438 172.394531 2.882812 C 173.03125 2.414062 173.859375 2.347656 174.625 2.257812 Z M 174.625 2.257812 " fill-opacity="1" fill-rule="nonzero"/><path fill="#363062" d="M 147.117188 5.394531 C 151.503906 4.941406 155.996094 5.152344 160.242188 6.414062 C 165.890625 8.03125 170.984375 11.300781 175.128906 15.441406 C 178.613281 18.890625 181.445312 22.957031 183.808594 27.246094 C 166.832031 27.933594 149.855469 28.566406 132.878906 29.265625 C 130.542969 24.167969 127.53125 19.316406 123.558594 15.34375 C 122.90625 14.648438 122 14.101562 121.707031 13.140625 C 121.65625 12.386719 122.488281 12.0625 123.042969 11.785156 C 125.910156 10.574219 128.863281 9.570312 131.835938 8.644531 C 136.820312 7.125 141.921875 5.90625 147.117188 5.394531 Z M 147.117188 5.394531 " fill-opacity="1" fill-rule="nonzero"/><path fill="#363062" d="M 113.890625 16.039062 C 115.011719 15.484375 116.105469 14.710938 117.390625 14.660156 C 118.378906 14.761719 119.136719 15.496094 119.882812 16.089844 C 122.0625 18.0625 123.757812 20.503906 125.367188 22.945312 C 126.261719 24.339844 127.113281 25.761719 127.902344 27.21875 C 128.167969 27.75 128.472656 28.398438 128.207031 28.992188 C 127.8125 29.597656 127 29.527344 126.371094 29.546875 C 121.714844 29.484375 117.0625 29.566406 112.410156 29.703125 C 107.957031 29.902344 103.492188 30.144531 99.089844 30.863281 C 97.484375 31.144531 95.859375 31.445312 94.367188 32.125 C 97.761719 26.308594 103.058594 21.835938 108.882812 18.597656 C 110.507812 17.664062 112.210938 16.875 113.890625 16.039062 Z M 113.890625 16.039062 " fill-opacity="1" fill-rule="nonzero"/><path fill="#363062" d="M 221.886719 26.242188 C 232.058594 25.992188 242.230469 25.726562 252.394531 25.257812 C 263.359375 24.882812 274.355469 25.039062 285.289062 26.054688 C 294.742188 26.886719 304.183594 27.898438 313.59375 29.144531 C 318.554688 29.816406 323.511719 30.535156 328.425781 31.523438 C 335.699219 32.941406 343.058594 34.390625 349.882812 37.394531 C 351.933594 38.3125 353.941406 39.34375 355.84375 40.542969 C 351.96875 39.042969 347.996094 37.765625 343.914062 36.980469 C 342.179688 36.625 340.417969 36.449219 338.683594 36.105469 C 336.710938 35.941406 334.734375 36.121094 332.761719 36.097656 C 326.628906 36.144531 320.476562 36.339844 314.394531 37.175781 C 313.601562 37.300781 312.679688 37.445312 312.183594 38.15625 C 311.746094 38.855469 312.078125 39.710938 312.390625 40.386719 C 314.503906 44.121094 316.394531 47.972656 318.351562 51.789062 C 319.691406 54.476562 321.089844 57.136719 322.386719 59.847656 C 317.0625 51.324219 309.714844 44.101562 301.203125 38.804688 C 299.746094 37.90625 298.257812 37.054688 296.714844 36.320312 C 294.613281 35.351562 292.339844 34.820312 290.0625 34.457031 C 285.679688 33.886719 281.359375 32.949219 277.003906 32.226562 C 256.234375 28.613281 235.179688 26.492188 214.09375 26.460938 C 216.6875 26.277344 219.289062 26.316406 221.886719 26.242188 Z M 221.886719 26.242188 " fill-opacity="1" fill-rule="nonzero"/><path fill="#363062" d="M 273.730469 37.8125 C 277.019531 38.503906 280.335938 39.707031 282.863281 42.007812 C 284.328125 43.316406 285.40625 45.0625 285.875 46.976562 C 286.183594 48.234375 286.023438 49.644531 285.246094 50.707031 C 284.308594 52.003906 282.8125 52.757812 281.328125 53.242188 C 282.6875 52.199219 284.089844 51.023438 284.660156 49.34375 C 285.210938 47.773438 284.695312 46.039062 283.738281 44.746094 C 282.242188 42.695312 280.121094 41.21875 277.972656 39.933594 C 276.605469 39.132812 275.1875 38.429688 273.730469 37.8125 Z M 273.730469 37.8125 " fill-opacity="1" fill-rule="nonzero"/><path fill="#363062" d="M 336.980469 37.800781 C 337.894531 37.6875 338.820312 37.640625 339.742188 37.742188 C 344.082031 38.621094 348.472656 39.375 352.691406 40.769531 C 353.925781 41.179688 355.160156 41.675781 356.164062 42.523438 C 357.507812 43.585938 358.371094 45.132812 358.921875 46.738281 C 359.898438 49.609375 360.917969 52.476562 361.621094 55.429688 C 361.90625 56.691406 362.234375 58.101562 361.578125 59.304688 C 361.203125 60.082031 360.308594 60.464844 359.480469 60.410156 C 351.1875 59.777344 342.875 59.449219 334.558594 59.3125 C 332.429688 59.226562 330.226562 59.519531 328.175781 58.808594 C 325.871094 58.011719 324.191406 56.097656 322.832031 54.148438 C 320.609375 50.898438 318.625 47.492188 316.78125 44.019531 C 316.207031 42.847656 315.671875 41.5 316.003906 40.179688 C 316.265625 39.214844 317.300781 38.785156 318.214844 38.722656 C 324.449219 38.105469 330.726562 38.109375 336.980469 37.800781 Z M 336.980469 37.800781 " fill-opacity="1" fill-rule="nonzero"/><path fill="#363062" d="M 268.585938 38.015625 C 271.832031 37.757812 274.90625 39.234375 277.621094 40.859375 C 279.359375 41.917969 281.039062 43.167969 282.214844 44.859375 C 283.171875 46.234375 283.660156 47.980469 283.351562 49.648438 C 282.902344 51.148438 281.539062 52.183594 280.089844 52.617188 C 278.238281 53.167969 276.253906 53.089844 274.375 52.730469 C 269.933594 51.867188 266.089844 48.625 264.289062 44.484375 C 263.730469 43.242188 263.648438 41.675781 264.539062 40.566406 C 265.558594 39.324219 266.921875 38.164062 268.585938 38.015625 Z M 268.585938 38.015625 " fill-opacity="1" fill-rule="nonzero"/><path fill="#363062" d="M 289.78125 38.101562 C 292.996094 37.554688 296.214844 38.820312 298.824219 40.632812 C 300.496094 41.78125 301.976562 43.179688 303.34375 44.671875 C 304.597656 45.964844 305.394531 47.648438 305.835938 49.386719 C 306.144531 50.78125 306.164062 52.402344 305.25 53.585938 C 304.171875 54.949219 302.3125 55.390625 300.65625 55.355469 C 296.210938 54.929688 291.988281 52.511719 289.363281 48.882812 C 288.410156 47.578125 287.640625 46.136719 287.0625 44.628906 C 286.59375 43.246094 286.464844 41.671875 287.046875 40.300781 C 287.523438 39.171875 288.582031 38.324219 289.78125 38.101562 Z M 289.78125 38.101562 " fill-opacity="1" fill-rule="nonzero"/><path fill="#363062" d="M 297.238281 38.589844 C 300.070312 40.132812 302.902344 41.753906 305.332031 43.898438 C 306.558594 45.015625 307.734375 46.265625 308.382812 47.820312 C 308.882812 48.980469 308.941406 50.375 308.363281 51.519531 C 307.925781 52.457031 307.144531 53.171875 306.34375 53.796875 C 307.179688 52.277344 307.382812 50.425781 306.828125 48.777344 C 305.980469 46.132812 304.046875 44.027344 302.039062 42.199219 C 300.554688 40.84375 298.878906 39.734375 297.238281 38.589844 Z M 297.238281 38.589844 " fill-opacity="1" fill-rule="nonzero"/><path fill="#363062" d="M 359.753906 44.636719 C 359.832031 44.589844 359.992188 44.503906 360.074219 44.460938 C 360.859375 44.628906 361.46875 45.226562 362.035156 45.769531 C 363.679688 47.519531 364.824219 49.671875 365.789062 51.855469 C 366.429688 53.382812 367.140625 54.910156 367.371094 56.5625 C 367.4375 57.273438 367.503906 58.113281 366.984375 58.675781 C 366.652344 58.890625 366.292969 58.621094 366.046875 58.410156 C 363.910156 56.296875 362.847656 53.398438 361.5 50.769531 C 360.789062 49.242188 360.023438 47.714844 359.625 46.070312 C 359.554688 45.605469 359.414062 45.027344 359.753906 44.636719 Z M 359.753906 44.636719 " fill-opacity="1" fill-rule="nonzero"/><path fill="#363062" d="M 216.421875 49.847656 C 220.019531 49.203125 223.820312 49.230469 227.261719 50.578125 C 230.28125 51.71875 232.890625 53.792969 234.902344 56.304688 C 237.410156 59.4375 239.085938 63.171875 240.195312 67.011719 C 241.394531 71.226562 241.96875 75.625 241.90625 80.007812 C 241.683594 83.910156 241.167969 87.8125 240.140625 91.59375 C 239.167969 95.136719 237.714844 98.597656 235.492188 101.542969 C 233.542969 104.144531 230.941406 106.28125 227.9375 107.539062 C 224.53125 108.984375 220.722656 109.332031 217.074219 108.851562 C 220.25 108.542969 223.398438 107.511719 225.96875 105.578125 C 228.882812 103.414062 230.980469 100.316406 232.414062 97.007812 C 234.273438 92.710938 235.207031 88.070312 235.746094 83.4375 C 236.332031 78.921875 236.246094 74.34375 235.683594 69.832031 C 235.195312 66.113281 234.289062 62.402344 232.566406 59.050781 C 231.089844 56.175781 228.914062 53.601562 226.105469 51.960938 C 223.210938 50.21875 219.761719 49.632812 216.421875 49.847656 Z M 216.421875 49.847656 " fill-opacity="1" fill-rule="nonzero"/><path fill="#363062" d="M 96.261719 59.886719 C 97.929688 62.761719 99.722656 65.605469 102.070312 67.976562 C 103.4375 69.335938 105.023438 70.503906 106.832031 71.199219 C 108.730469 71.949219 110.785156 72.140625 112.800781 72.289062 C 137.261719 73.777344 161.726562 75.171875 186.183594 76.609375 C 187.667969 76.746094 189.171875 76.671875 190.640625 76.933594 C 179.054688 76.675781 167.460938 76.566406 155.871094 76.355469 C 140.988281 76.140625 126.101562 75.886719 111.21875 75.671875 C 109.292969 75.589844 107.332031 75.773438 105.433594 75.363281 C 102.589844 74.722656 100.371094 72.347656 99.488281 69.617188 C 98.429688 66.367188 97.273438 63.148438 96.261719 59.886719 Z M 96.261719 59.886719 " fill-opacity="1" fill-rule="nonzero"/><path fill="#363062" d="M 113.808594 80.226562 C 114.667969 80.125 115.519531 79.917969 116.394531 79.925781 C 132.542969 80.566406 148.703125 81.148438 164.859375 81.628906 C 170.710938 81.773438 176.558594 81.972656 182.414062 81.992188 C 183.070312 82.003906 183.722656 82.066406 184.371094 82.152344 C 182.050781 82.089844 179.738281 82.347656 177.417969 82.378906 C 162.734375 82.976562 148.039062 83.015625 133.347656 82.953125 C 121.769531 82.894531 110.191406 82.691406 98.617188 82.417969 C 103.675781 81.644531 108.746094 80.964844 113.808594 80.226562 Z M 113.808594 80.226562 " fill-opacity="1" fill-rule="nonzero"/><path fill="#363062" d="M 249.5625 82.015625 C 249.699219 81.664062 250.085938 81.726562 250.390625 81.726562 C 259.054688 82.140625 267.730469 82.515625 276.40625 82.3125 C 277.761719 85 280.078125 87.207031 282.914062 88.246094 C 284.746094 88.949219 286.726562 89.230469 288.6875 89.140625 C 304.347656 90.136719 320.039062 90.957031 335.742188 90.730469 C 341.332031 90.519531 346.917969 90.183594 352.488281 89.667969 C 356.820312 89.238281 361.148438 88.726562 365.410156 87.820312 C 367.242188 87.414062 369.082031 86.964844 370.820312 86.230469 C 371.71875 85.832031 372.671875 85.382812 373.21875 84.519531 C 374.117188 85.671875 374.519531 87.109375 374.925781 88.496094 C 375.304688 89.800781 375.054688 91.296875 374.15625 92.335938 C 372.859375 93.863281 370.941406 94.636719 369.097656 95.261719 C 365.25 96.484375 361.226562 97.015625 357.230469 97.488281 C 346.855469 98.585938 336.417969 98.898438 325.996094 99.25 C 304.441406 99.957031 282.847656 99.316406 261.363281 97.488281 C 257.898438 97.175781 254.4375 96.855469 250.988281 96.445312 C 250.71875 96.367188 250.273438 96.410156 250.226562 96.042969 C 250.238281 91.363281 249.988281 86.675781 249.5625 82.015625 Z M 249.5625 82.015625 " fill-opacity="1" fill-rule="nonzero"/><path fill="#363062" d="M 234.449219 105.433594 C 240.289062 100.378906 243.285156 92.605469 243.613281 84.984375 C 244.132812 87.089844 244.113281 89.277344 244.25 91.429688 C 244.316406 94.292969 244.410156 97.164062 244.242188 100.027344 C 244.363281 100.617188 245.097656 100.777344 245.609375 100.890625 C 248.09375 101.269531 250.617188 101.234375 253.121094 101.433594 C 252.417969 102.617188 251.355469 103.519531 250.394531 104.484375 C 248.90625 105.917969 247.355469 107.285156 245.765625 108.601562 C 243.941406 110.09375 241.441406 109.988281 239.230469 110.273438 C 234.480469 110.609375 229.691406 110.96875 224.933594 110.527344 C 228.410156 109.511719 231.707031 107.820312 234.449219 105.433594 Z M 234.449219 105.433594 " fill-opacity="1" fill-rule="nonzero"/><path fill="#363062" d="M 61.136719 88.917969 C 65.542969 89.257812 69.925781 89.824219 74.324219 90.234375 C 94.648438 92.292969 114.988281 94.257812 135.34375 96.039062 C 148.957031 97.210938 162.578125 98.335938 176.222656 99.125 C 179.570312 99.257812 182.914062 99.515625 186.261719 99.539062 C 180.855469 99.617188 175.449219 99.46875 170.042969 99.429688 C 156.347656 99.316406 142.65625 99.203125 128.960938 99.148438 C 127.980469 99.125 127 99.179688 126.023438 99.105469 C 104.390625 95.726562 82.773438 92.277344 61.136719 88.917969 Z M 61.136719 88.917969 " fill-opacity="1" fill-rule="nonzero"/><g clip-path="url(#3a8664572f)"><path fill="#363062" d="M 337.738281 102.523438 C 341.976562 102.40625 346.210938 102.210938 350.433594 101.851562 C 349.707031 103.183594 348.46875 104.125 347.335938 105.085938 C 342.082031 109.195312 335.660156 111.972656 328.96875 112.363281 C 324.699219 112.605469 320.378906 111.761719 316.515625 109.925781 C 312.789062 108.183594 309.480469 105.613281 306.636719 102.648438 C 317.003906 102.777344 327.375 102.796875 337.738281 102.523438 Z M 337.738281 102.523438 " fill-opacity="1" fill-rule="nonzero"/></g></svg>